<?xml version="1.0" encoding="utf-8"?>
<!-- Generator: Adobe Illustrator 23.0.4, SVG Export Plug-In . SVG Version: 6.00 Build 0)  -->
<svg version="1.1" id="レイヤー_1" xmlns="http://www.w3.org/2000/svg" xmlns:xlink="http://www.w3.org/1999/xlink" x="0px"
	 y="0px" viewBox="0 0 745 183" style="enable-background:new 0 0 745 183;" xml:space="preserve">
<style type="text/css">
	.st0{enable-background:new    ;}
	.st1{fill:#231815;}
</style>
<g class="st0">
	<path class="st1" d="M5.6,139.8L14.9,97c1.6-7.3,2.9-14.9,3.8-22.8c1-7.9,1.4-15.2,1.4-21.9c0-1.5,0-2.9-0.1-4.1l8.2-3.7v2.1
		c0,3.3-0.3,8.5-0.9,15.8c-0.6,7.3-1.2,12.9-1.9,16.8c3-7.1,6.8-13.7,11.3-19.7c4.5-6.1,9.1-10.9,13.9-14.4c4.7-3.5,9-5.3,12.9-5.3
		c3.9,0,7,1.5,9.3,4.6c2.4,3.1,3.5,7.2,3.5,12.4c0,6.5-1.4,13.1-4.2,19.7c-2.8,6.6-6.7,12.7-11.6,18.2c-4.9,5.5-10.2,9.9-16,13.1
		c-5.8,3.2-11.6,4.8-17.3,4.8c-1.3,0-2.8-0.2-4.5-0.5l3.9-5.3c2.4,0.8,4.9,1.2,7.4,1.2c4.1,0,8.2-1.4,12.4-4.1
		c4.1-2.7,7.8-6.6,11.1-11.6c3-4.6,5.6-10.3,7.7-17.2c2.1-6.9,3.2-12.8,3.2-17.8c0-4.2-0.7-7.4-2.1-9.7c-1.4-2.3-3.4-3.5-5.9-3.5
		c-3.6,0-7.7,2-12.3,6.1c-4.7,4.1-9.2,9.6-13.7,16.6c-3.2,5-5.9,10.3-8.1,16c-2.2,5.7-4.1,12.4-5.8,20l-8,36.9H5.6z"/>
	<path class="st1" d="M112.8,95.9l-7,27.2c-0.7,3-1.1,5.3-1.1,7c0,1.5,0.3,2.8,1,3.9c0.6,1.1,1.4,1.6,2.4,1.6c1.4,0,3.8-1.8,7.1-5.3
		l1,1l-0.8,1c-2.6,3-4.6,5.1-6.1,6.4c-1.4,1.2-2.6,1.8-3.7,1.8c-1.6,0-3-0.8-4.1-2.5c-1.2-1.7-1.7-3.6-1.7-5.8
		c0-1.6,0.6-5.2,1.8-10.8l0.6-2.8c-1.8,4.3-4.3,8.3-7.4,12.3c-5.2,6.5-10.1,9.8-14.8,9.8c-2.8,0-5.1-1-6.7-3c-1.6-2-2.5-4.8-2.5-8.2
		c0-4.7,1.3-9.5,4-14.6c2.6-5.1,5.9-9.3,9.9-12.6c3.9-3.3,7.8-4.9,11.5-4.9c3.9,0,6.8,1.4,8.8,4.3l0.8-2.8L112.8,95.9z M104.2,105.4
		c-0.6-1.9-1.6-3.4-3-4.4c-1.4-1.1-3-1.6-4.9-1.6c-2.2,0-4.5,1-6.9,3c-2.4,2-4.7,4.8-6.7,8.4c-1.6,2.8-2.9,5.9-4,9.4
		c-1.1,3.4-1.6,6.2-1.6,8.5c0,2.5,0.5,4.5,1.4,5.9c1,1.4,2.3,2.2,4.1,2.2c2.3,0,4.7-1.1,7.1-3.2c2.5-2.1,4.9-5.2,7.4-9.1
		c1.5-2.3,2.6-4.6,3.5-6.8c0.8-2.3,1.8-5.4,2.8-9.5L104.2,105.4z"/>
	<path class="st1" d="M134.6,100.2l-5.6,24.7c-0.6,2.7-0.9,4.7-0.9,5.8c0,1.8,0.4,3.2,1.3,4.3c0.8,1.1,2,1.6,3.3,1.6
		c1.3,0,2.6-0.4,3.7-1.2c1.1-0.8,2.8-2.4,5.1-4.8l0.9-0.9l1.1,1.1c-2.9,3.6-5.4,6.1-7.3,7.5c-2,1.5-3.9,2.2-5.8,2.2
		c-2.4,0-4.3-0.8-5.7-2.3c-1.4-1.6-2.1-3.6-2.1-6.1c0-1.9,0.4-4.6,1.1-8.2l4.8-23.8h-7.1l0.5-2.5h7.1l4.2-20.1l7.1-2.8l-5.2,22.9h12
		l-0.5,2.5H134.6z"/>
	<path class="st1" d="M162.5,96.4l-6.5,24.4c-1.1,4-1.6,7.2-1.6,9.7c0,1.6,0.3,2.9,0.8,3.9c0.5,1,1.3,1.5,2.2,1.5
		c1.5,0,4-1.8,7.4-5.5l1.2,1l-0.7,0.8c-2.8,3.3-4.9,5.6-6.2,6.7c-1.3,1.2-2.6,1.7-3.7,1.7c-1.5,0-2.8-0.8-3.9-2.3
		c-1.1-1.6-1.6-3.5-1.6-5.8c0-1.5,0.3-3.8,0.9-7.1l4.7-26L162.5,96.4z M164.6,67.2c1.3,0,2.3,0.4,3.1,1.2c0.8,0.8,1.2,1.8,1.2,3.1
		c0,1.2-0.4,2.3-1.3,3.1c-0.8,0.8-1.9,1.3-3,1.3c-1.1,0-2.2-0.4-3-1.3c-0.9-0.9-1.3-1.9-1.3-3c0-1.2,0.4-2.2,1.3-3
		C162.4,67.7,163.4,67.2,164.6,67.2z"/>
	<path class="st1" d="M165.5,135.1l4.2-4.9c2.2,5.2,5.6,7.7,10.4,7.7c2.5,0,4.6-0.8,6.4-2.4c1.8-1.6,2.6-3.5,2.6-5.6
		c0-1.5-0.4-2.8-1.3-3.9c-0.8-1.1-2.8-2.9-6-5.5c-2.9-2.4-4.9-4.2-5.9-5.6c-1-1.4-1.5-2.9-1.5-4.7c0-2.3,0.7-4.5,2-6.5
		c1.4-2,3.2-3.6,5.5-4.8c2.3-1.2,4.7-1.8,7.2-1.8c2.2,0,4.1,0.6,5.6,1.7c1.5,1.1,2.3,2.5,2.3,4.3c0,2.3-1,3.8-2.9,4.7
		c-0.3-2.3-1.2-4.1-2.6-5.5c-1.5-1.3-3.3-2-5.6-2c-2,0-3.8,0.7-5.3,2c-1.5,1.3-2.3,2.8-2.3,4.5c0,2.1,1.3,4.1,3.9,6.2l4.3,3.5
		c4.2,3.3,6.3,6.7,6.3,10.2c0,2.6-0.7,5-2.2,7.2c-1.5,2.3-3.4,4-5.9,5.4c-2.5,1.3-5.1,2-7.9,2C172.2,141.2,168.5,139.1,165.5,135.1z
		"/>
	<path class="st1" d="M197.9,135.1l4.2-4.9c2.2,5.2,5.6,7.7,10.4,7.7c2.5,0,4.6-0.8,6.4-2.4c1.8-1.6,2.6-3.5,2.6-5.6
		c0-1.5-0.4-2.8-1.3-3.9c-0.8-1.1-2.8-2.9-6-5.5c-2.9-2.4-4.9-4.2-5.9-5.6c-1-1.4-1.5-2.9-1.5-4.7c0-2.3,0.7-4.5,2-6.5
		c1.4-2,3.2-3.6,5.5-4.8c2.3-1.2,4.7-1.8,7.2-1.8c2.2,0,4.1,0.6,5.6,1.7c1.5,1.1,2.3,2.5,2.3,4.3c0,2.3-1,3.8-2.9,4.7
		c-0.3-2.3-1.2-4.1-2.6-5.5c-1.5-1.3-3.3-2-5.6-2c-2,0-3.8,0.7-5.3,2c-1.5,1.3-2.3,2.8-2.3,4.5c0,2.1,1.3,4.1,3.9,6.2l4.3,3.5
		c4.2,3.3,6.3,6.7,6.3,10.2c0,2.6-0.7,5-2.2,7.2c-1.5,2.3-3.4,4-5.9,5.4c-2.5,1.3-5.1,2-7.9,2C204.6,141.2,200.9,139.1,197.9,135.1z
		"/>
	<path class="st1" d="M264.7,128.3l1.3,1.1c-3.1,4.1-6.1,7-9,8.8c-2.9,1.8-6.1,2.7-9.4,2.7c-4,0-7.2-1.3-9.7-4
		c-2.4-2.7-3.6-6.2-3.6-10.6c0-4.5,1.2-9,3.5-13.6c2.4-4.6,5.3-8.4,8.8-11.4c3.5-3,7-4.5,10.5-4.5c2,0,3.7,0.6,5,1.8
		c1.3,1.2,2,2.7,2,4.6c0,3.8-2.1,7.6-6.2,11.4c-4.2,3.8-9.8,7.1-17,9.7c-0.1,0.4-0.1,0.8-0.1,1.3c0,3.4,0.9,6.2,2.8,8.4
		c1.9,2.2,4.3,3.2,7.3,3.2c2.3,0,4.6-0.7,6.8-2.2C259.9,133.7,262.2,131.4,264.7,128.3z M240.9,122.7c5.3-2.4,9.5-5,12.3-7.9
		c1.9-2,3.5-4.1,4.7-6.4c1.2-2.3,1.8-4.3,1.8-6.2c0-2.3-1.1-3.5-3.2-3.5c-3.2,0-6.5,2.5-9.8,7.6
		C243.5,111.4,241.5,116.8,240.9,122.7z"/>
	<path class="st1" d="M271.2,118.7c4.3-5.2,7.1-10,8.5-14.4c-4-2.2-6-5.4-6-9.6c0-2,0.5-3.6,1.4-4.8c0.9-1.2,2.1-1.9,3.6-1.9
		c1.5,0,2.7,0.7,3.6,2c0.9,1.4,1.4,3.1,1.4,5.3c0,1.5-0.3,3.2-0.8,5.1c1.3,0.3,2.6,0.5,3.6,0.5c3.1,0,5.6-0.9,7.6-2.7h3.6l-0.5,1
		c-3.6,6.5-6.5,13-8.8,19.3c-2.3,6.3-3.5,11-3.5,14.2c0,1.1,0.3,2.1,0.9,2.9c0.6,0.8,1.3,1.2,2.2,1.2c2,0,5.3-2.2,9.8-6.5l1.2,1.3
		c-1.4,1.5-3.5,3.4-6.5,5.7c-2.6,2.1-5.1,3.1-7.4,3.1c-1.9,0-3.5-0.6-4.6-1.9s-1.7-3-1.7-5.3c0-3.7,1.4-8.4,4.3-14.1
		c1-2.1,2.4-4.6,4-7.3c1.6-2.7,3.7-6,6.2-9.7l0.7-1c-1.6,1.5-3.2,2.5-4.7,3.2c-1.5,0.6-3.2,0.9-5.2,0.9c-0.9,0-1.8-0.1-2.8-0.4
		c-1.6,4.9-4.6,9.9-8.9,15L271.2,118.7z M281.3,99.9c0.2-1.2,0.3-2.3,0.3-3.1c0-1.7-0.3-3.1-0.9-4.1c-0.6-1-1.3-1.5-2.2-1.5
		c-0.5,0-0.9,0.2-1.3,0.7c-0.4,0.5-0.6,1.1-0.6,1.7C276.7,95.9,278.3,98,281.3,99.9z"/>
	<path class="st1" d="M318.9,96.4l-6.5,24.4c-1.1,4-1.6,7.2-1.6,9.7c0,1.6,0.3,2.9,0.8,3.9c0.5,1,1.3,1.5,2.2,1.5
		c1.5,0,4-1.8,7.4-5.5l1.2,1l-0.7,0.8c-2.8,3.3-4.9,5.6-6.2,6.7c-1.3,1.2-2.6,1.7-3.7,1.7c-1.5,0-2.8-0.8-3.9-2.3
		c-1.1-1.6-1.6-3.5-1.6-5.8c0-1.5,0.3-3.8,0.9-7.1l4.7-26L318.9,96.4z M321.1,67.2c1.3,0,2.3,0.4,3.1,1.2c0.8,0.8,1.2,1.8,1.2,3.1
		c0,1.2-0.4,2.3-1.3,3.1c-0.8,0.8-1.9,1.3-3,1.3c-1.1,0-2.2-0.4-3-1.3c-0.9-0.9-1.3-1.9-1.3-3c0-1.2,0.4-2.2,1.3-3
		C318.8,67.7,319.9,67.2,321.1,67.2z"/>
	<path class="st1" d="M356.4,128.3l1.3,1.1c-3.1,4.1-6.1,7-9,8.8c-2.9,1.8-6.1,2.7-9.4,2.7c-4,0-7.2-1.3-9.7-4
		c-2.4-2.7-3.6-6.2-3.6-10.6c0-4.5,1.2-9,3.5-13.6c2.4-4.6,5.3-8.4,8.8-11.4c3.5-3,7-4.5,10.5-4.5c2,0,3.7,0.6,5,1.8
		c1.3,1.2,2,2.7,2,4.6c0,3.8-2.1,7.6-6.2,11.4c-4.2,3.8-9.8,7.1-17,9.7c-0.1,0.4-0.1,0.8-0.1,1.3c0,3.4,0.9,6.2,2.8,8.4
		c1.9,2.2,4.3,3.2,7.3,3.2c2.3,0,4.6-0.7,6.8-2.2C351.6,133.7,353.9,131.4,356.4,128.3z M332.6,122.7c5.3-2.4,9.5-5,12.3-7.9
		c1.9-2,3.5-4.1,4.7-6.4c1.2-2.3,1.8-4.3,1.8-6.2c0-2.3-1.1-3.5-3.2-3.5c-3.2,0-6.5,2.5-9.8,7.6
		C335.1,111.4,333.2,116.8,332.6,122.7z"/>
	<path class="st1" d="M456.4,43.5l8.1-3.8c-0.7,4.7-1.8,10.1-3.1,16.2c-1.3,6.1-2.8,12.3-4.6,18.8c-1.7,6.4-3.3,11.8-4.8,16.1
		c-1.6,5-3.4,9.7-5.2,14.2c-1.9,4.4-3.8,8.3-5.7,11.5c-1.9,3.2-4,6.2-6.3,8.9c-2.3,2.7-4.7,5.1-7.2,7.1c-8.8,7.3-20,10.9-33.6,10.9
		c-3.4,0-6-0.3-7.8-0.9l2.2-5.5c5.7,1.6,10.9,2.5,15.7,2.5c11,0,20.5-5.8,28.5-17.5c2.3-3.4,4.3-7.3,6.2-11.7
		c1.9-4.4,3.9-10.6,6.2-18.5c1.1-3.8,2.2-7.7,3.2-11.8c1.1-4.1,2.1-8,3-11.9c0.9-3.8,1.9-8,2.8-12.5s1.6-7.9,2-10.3L456.4,43.5z
		 M510.1,43l-54.4,59.4c1.6,3.8,3.8,7.9,6.6,12.1c2.8,4.3,5.7,8.2,8.8,11.8c3.1,3.6,6.4,6.8,9.9,9.7l-5.3,5
		c-10.6-9.6-19.2-21.5-25.9-36l52.2-62H510.1z"/>
	<path class="st1" d="M537.8,95.9l-7,27.2c-0.7,3-1.1,5.3-1.1,7c0,1.5,0.3,2.8,1,3.9c0.6,1.1,1.4,1.6,2.4,1.6c1.4,0,3.8-1.8,7.1-5.3
		l1,1l-0.8,1c-2.6,3-4.6,5.1-6.1,6.4s-2.6,1.8-3.7,1.8c-1.6,0-3-0.8-4.1-2.5c-1.2-1.7-1.7-3.6-1.7-5.8c0-1.6,0.6-5.2,1.8-10.8
		l0.6-2.8c-1.8,4.3-4.3,8.3-7.4,12.3c-5.2,6.5-10.1,9.8-14.8,9.8c-2.8,0-5.1-1-6.7-3c-1.6-2-2.5-4.8-2.5-8.2c0-4.7,1.3-9.5,4-14.6
		c2.6-5.1,5.9-9.3,9.9-12.6c3.9-3.3,7.8-4.9,11.5-4.9c3.9,0,6.8,1.4,8.8,4.3l0.8-2.8L537.8,95.9z M529.2,105.4
		c-0.6-1.9-1.6-3.4-3-4.4c-1.4-1.1-3-1.6-4.9-1.6c-2.2,0-4.5,1-6.9,3c-2.4,2-4.7,4.8-6.7,8.4c-1.6,2.8-2.9,5.9-4,9.4
		c-1.1,3.4-1.6,6.2-1.6,8.5c0,2.5,0.5,4.5,1.4,5.9c1,1.4,2.3,2.2,4.1,2.2c2.3,0,4.7-1.1,7.1-3.2c2.5-2.1,4.9-5.2,7.4-9.1
		c1.5-2.3,2.6-4.6,3.5-6.8c0.8-2.3,1.8-5.4,2.8-9.5L529.2,105.4z"/>
	<path class="st1" d="M575.3,139l-4.9,1.6l5.9-30.2l0.5-2.6c0.3-1.4,0.4-2.6,0.4-3.6c0-2.2-0.9-3.3-2.6-3.3c-1.6,0-3.6,1.1-5.9,3.3
		c-2.3,2.2-4.8,5.4-7.4,9.5c-1.7,2.7-3.1,5.2-4.3,7.7c-1.2,2.5-2.3,5.1-3.3,7.9c-1,2.8-2,6-2.9,9.6l-4.6,1.6l7.7-41.2l7.1-3l-6.5,27
		c3.3-7.7,7.1-14,11.4-18.9c4.3-4.9,8.1-7.4,11.6-7.4c3.7,0,5.6,2.1,5.6,6.3c0,1.4-0.4,4-1.1,7.7l-2.5,11.1
		c4.8-9.2,8.9-15.7,12.2-19.5c3.3-3.8,6.6-5.7,9.9-5.7c1.8,0,3.3,0.5,4.3,1.6c1,1.1,1.6,2.7,1.6,4.7c0,1.6-0.5,4.5-1.5,8.5l-2.3,9.1
		l-0.7,2.9c-0.7,3.1-1,5.3-1,6.8c0,1.6,0.3,2.9,0.8,3.8c0.5,1,1.2,1.4,2.1,1.4c1.6,0,4.1-1.8,7.4-5.5l1.1,1l-0.7,0.8
		c-2.8,3.3-4.9,5.6-6.3,6.7c-1.4,1.2-2.6,1.7-3.8,1.7c-1.5,0-2.8-0.8-3.9-2.3c-1.1-1.6-1.6-3.5-1.6-5.8c0-1.4,0.3-3.8,1-7.1
		l2.8-15.4l0.4-2.7c0.3-1.5,0.4-2.7,0.4-3.6s-0.3-1.6-0.8-2.2c-0.5-0.5-1.3-0.8-2.2-0.8c-1.1,0-2.3,0.5-3.6,1.4
		c-1.3,0.9-2.7,2.3-4.2,4.2c-1.5,1.9-3.1,4.4-5,7.4c-2.5,4.2-4.5,8.1-6,11.8C578.2,129.2,576.7,133.7,575.3,139z"/>
	<path class="st1" d="M659.2,95.9l-7,27.2c-0.7,3-1.1,5.3-1.1,7c0,1.5,0.3,2.8,1,3.9c0.6,1.1,1.4,1.6,2.4,1.6c1.4,0,3.8-1.8,7.1-5.3
		l1,1l-0.8,1c-2.6,3-4.6,5.1-6.1,6.4c-1.4,1.2-2.6,1.8-3.7,1.8c-1.6,0-3-0.8-4.1-2.5c-1.2-1.7-1.7-3.6-1.7-5.8
		c0-1.6,0.6-5.2,1.8-10.8l0.6-2.8c-1.8,4.3-4.3,8.3-7.4,12.3c-5.2,6.5-10.1,9.8-14.8,9.8c-2.8,0-5.1-1-6.7-3c-1.6-2-2.5-4.8-2.5-8.2
		c0-4.7,1.3-9.5,4-14.6c2.6-5.1,5.9-9.3,9.9-12.6c3.9-3.3,7.8-4.9,11.5-4.9c3.9,0,6.8,1.4,8.8,4.3l0.8-2.8L659.2,95.9z M650.7,105.4
		c-0.6-1.9-1.6-3.4-3-4.4c-1.4-1.1-3-1.6-4.9-1.6c-2.2,0-4.5,1-6.9,3c-2.4,2-4.7,4.8-6.7,8.4c-1.6,2.8-2.9,5.9-4,9.4
		c-1.1,3.4-1.6,6.2-1.6,8.5c0,2.5,0.5,4.5,1.4,5.9c1,1.4,2.3,2.2,4.1,2.2c2.3,0,4.7-1.1,7.1-3.2c2.5-2.1,4.9-5.2,7.4-9.1
		c1.5-2.3,2.6-4.6,3.5-6.8c0.8-2.3,1.8-5.4,2.8-9.5L650.7,105.4z"/>
	<path class="st1" d="M681,100.2l-5.6,24.7c-0.6,2.7-0.9,4.7-0.9,5.8c0,1.8,0.4,3.2,1.3,4.3c0.8,1.1,2,1.6,3.3,1.6
		c1.3,0,2.6-0.4,3.7-1.2c1.1-0.8,2.8-2.4,5.1-4.8l0.9-0.9l1.1,1.1c-2.9,3.6-5.4,6.1-7.3,7.5c-2,1.5-3.9,2.2-5.8,2.2
		c-2.4,0-4.3-0.8-5.7-2.3c-1.4-1.6-2.1-3.6-2.1-6.1c0-1.9,0.4-4.6,1.1-8.2l4.8-23.8h-7.1l0.5-2.5h7.1l4.2-20.1l7.1-2.8l-5.2,22.9h12
		l-0.5,2.5H681z"/>
	<path class="st1" d="M736,95.9l-7,27.2c-0.7,3-1.1,5.3-1.1,7c0,1.5,0.3,2.8,1,3.9c0.6,1.1,1.4,1.6,2.4,1.6c1.4,0,3.8-1.8,7.1-5.3
		l1,1l-0.8,1c-2.6,3-4.6,5.1-6.1,6.4c-1.4,1.2-2.6,1.8-3.7,1.8c-1.6,0-3-0.8-4.1-2.5c-1.2-1.7-1.7-3.6-1.7-5.8
		c0-1.6,0.6-5.2,1.8-10.8l0.6-2.8c-1.8,4.3-4.3,8.3-7.4,12.3c-5.2,6.5-10.1,9.8-14.8,9.8c-2.8,0-5.1-1-6.7-3c-1.6-2-2.5-4.8-2.5-8.2
		c0-4.7,1.3-9.5,4-14.6c2.6-5.1,5.9-9.3,9.9-12.6c3.9-3.3,7.8-4.9,11.5-4.9c3.9,0,6.8,1.4,8.8,4.3l0.8-2.8L736,95.9z M727.4,105.4
		c-0.6-1.9-1.6-3.4-3-4.4c-1.4-1.1-3-1.6-4.9-1.6c-2.2,0-4.5,1-6.9,3s-4.7,4.8-6.7,8.4c-1.6,2.8-2.9,5.9-4,9.4
		c-1.1,3.4-1.6,6.2-1.6,8.5c0,2.5,0.5,4.5,1.4,5.9c1,1.4,2.3,2.2,4.1,2.2c2.3,0,4.7-1.1,7.1-3.2c2.5-2.1,4.9-5.2,7.4-9.1
		c1.5-2.3,2.6-4.6,3.5-6.8c0.8-2.3,1.8-5.4,2.8-9.5L727.4,105.4z"/>
</g>
</svg>
